<mxfile host="app.diagrams.net" modified="2021-11-21T10:59:27.198Z" agent="5.0 (Windows NT 10.0; Win64; x64) AppleWebKit/537.36 (KHTML, like Gecko) Chrome/96.0.4664.45 Safari/537.36" etag="q6RgITJVbVdPjBfuNZ6s" version="15.8.3" type="github">
  <diagram id="C5RBs43oDa-KdzZeNtuy" name="Page-1">
    <mxGraphModel dx="813" dy="1625" grid="1" gridSize="10" guides="1" tooltips="1" connect="1" arrows="1" fold="1" page="1" pageScale="1" pageWidth="827" pageHeight="1169" math="0" shadow="0">
      <root>
        <mxCell id="WIyWlLk6GJQsqaUBKTNV-0" />
        <mxCell id="WIyWlLk6GJQsqaUBKTNV-1" parent="WIyWlLk6GJQsqaUBKTNV-0" />
        <mxCell id="ldSubyIyqzCidqh-BE6F-4" value="" style="edgeStyle=orthogonalEdgeStyle;rounded=0;orthogonalLoop=1;jettySize=auto;html=1;" edge="1" parent="WIyWlLk6GJQsqaUBKTNV-1" source="ldSubyIyqzCidqh-BE6F-0" target="ldSubyIyqzCidqh-BE6F-3">
          <mxGeometry relative="1" as="geometry" />
        </mxCell>
        <mxCell id="ldSubyIyqzCidqh-BE6F-0" value="Start" style="strokeWidth=2;html=1;shape=mxgraph.flowchart.start_2;whiteSpace=wrap;" vertex="1" parent="WIyWlLk6GJQsqaUBKTNV-1">
          <mxGeometry x="330" y="-1160" width="76" height="70" as="geometry" />
        </mxCell>
        <mxCell id="ldSubyIyqzCidqh-BE6F-6" value="" style="edgeStyle=orthogonalEdgeStyle;rounded=0;orthogonalLoop=1;jettySize=auto;html=1;" edge="1" parent="WIyWlLk6GJQsqaUBKTNV-1" source="ldSubyIyqzCidqh-BE6F-3" target="ldSubyIyqzCidqh-BE6F-5">
          <mxGeometry relative="1" as="geometry" />
        </mxCell>
        <mxCell id="ldSubyIyqzCidqh-BE6F-8" value="" style="edgeStyle=orthogonalEdgeStyle;rounded=0;orthogonalLoop=1;jettySize=auto;html=1;" edge="1" parent="WIyWlLk6GJQsqaUBKTNV-1" source="ldSubyIyqzCidqh-BE6F-3" target="ldSubyIyqzCidqh-BE6F-7">
          <mxGeometry relative="1" as="geometry" />
        </mxCell>
        <mxCell id="ldSubyIyqzCidqh-BE6F-3" value="&lt;span&gt;Get X &amp;amp; Y&lt;/span&gt;" style="shape=parallelogram;html=1;strokeWidth=2;perimeter=parallelogramPerimeter;whiteSpace=wrap;rounded=1;arcSize=12;size=0.23;" vertex="1" parent="WIyWlLk6GJQsqaUBKTNV-1">
          <mxGeometry x="318" y="-1070" width="100" height="30" as="geometry" />
        </mxCell>
        <mxCell id="ldSubyIyqzCidqh-BE6F-5" value="perimeter&lt;br&gt;=&lt;br&gt;2(X+Y)" style="whiteSpace=wrap;html=1;rounded=1;strokeWidth=2;arcSize=12;" vertex="1" parent="WIyWlLk6GJQsqaUBKTNV-1">
          <mxGeometry x="280" y="-990" width="82" height="50" as="geometry" />
        </mxCell>
        <mxCell id="ldSubyIyqzCidqh-BE6F-7" value="Area&lt;br&gt;=&lt;br&gt;X*Y" style="whiteSpace=wrap;html=1;rounded=1;strokeWidth=2;arcSize=12;" vertex="1" parent="WIyWlLk6GJQsqaUBKTNV-1">
          <mxGeometry x="372" y="-990" width="86" height="50" as="geometry" />
        </mxCell>
      </root>
    </mxGraphModel>
  </diagram>
</mxfile>
